<svg xmlns="http://www.w3.org/2000/svg" xmlns:svg="http://www.w3.org/2000/svg" id="svg5" width="1920" height="1482" version="1.1" viewBox="0 0 508 392.113"><g id="layer1"><g style="clip-rule:evenodd;fill:#00f9bb;fill-rule:evenodd;stroke-linejoin:round;stroke-miterlimit:2;fill-opacity:1" id="g6386" transform="matrix(0.5235285,0,0,0.5235285,-7.7570055,-52.964324)"><g id="g6353" transform="matrix(4.6075,0,-1.60927,4.6075,-718.738,-4931)" style="fill:#00f9bb;fill-opacity:1"><g id="g6351" style="fill:#00f9bb;fill-opacity:1"><g id="g6307" transform="matrix(0.983552,0,0.343527,0.983552,-743.563,14.8473)" style="fill:#00f9bb;fill-opacity:1"><path style="fill:#00f9bb;fill-opacity:1;stroke-width:1.49556" id="path6305" d="m 1136.7872,1203.3847 c -3.0509,3.365 -6.3263,6.0571 -9.9157,8.2107 -9.751,5.8625 -22.0144,7.7617 -39.4376,7.9412 h -4.4268 0.015 -96.19977 l -63.20493,40.6641 c 0,0 152.0765,0 152.0765,0 24.6916,-0.09 46.6761,-16.3613 55.0213,-39.6022 2.2582,-6.2813 4.2922,-12.0541 6.072,-17.2138 z m -151.0955,-50.4 h 118.2381 c 7.1936,-0.03 13.9536,3.4248 18.141,9.2725 4.1727,5.8475 5.2644,13.3552 2.9164,20.1599 0,0 0,0 0,0 -2.9014,8.4199 -10.8128,14.5815 -19.7263,14.6117 H 965.34025 c -5.57991,-0.1797 -10.77993,-2.9314 -14.06565,-7.4779 -3.41284,-4.7109 -4.34158,-10.783 -2.49456,-16.3165 l 12.31583,-36.8204 c 6.1168,11.3811 18.43416,16.4361 24.59583,16.5707 z m 104.6886,-21.9397 40.7536,-35.295 H 999.8845 c -5.86261,0.015 -11.07908,4.2324 -12.99637,9.7809 0,0 0,0 0,0 -2.03843,5.8924 -1.09324,12.3981 2.53197,17.4681 3.6297,5.0699 9.49225,8.0758 15.7137,8.046 36.327,-0.1346 54.0941,-0.015 85.2465,0 z"/></g></g></g></g></g></svg>